HIERARCHY
ROOT Hips
{
	OFFSET 0.000000 89.005402 0.000000
	CHANNELS 6 Xposition Yposition Zposition Xrotation Yrotation Zrotation
	JOINT Spine
	{
		OFFSET 0.116900 10.681000 0.373400
		CHANNELS 3 Xrotation Yrotation Zrotation
		JOINT Spine1
		{
			OFFSET 0.000000 13.840401 0.053500
			CHANNELS 3 Xrotation Yrotation Zrotation
			JOINT Spine2
			{
				OFFSET 0.000000 14.712700 -0.366200
				CHANNELS 3 Xrotation Yrotation Zrotation
				JOINT Neck
				{
					OFFSET 0.000000 35.415497 -3.314200
					CHANNELS 3 Xrotation Yrotation Zrotation
					JOINT Head
					{
						OFFSET 0.000000 16.899200 1.218300
						CHANNELS 3 Xrotation Yrotation Zrotation
						JOINT HeadTop_End
						{
							OFFSET 0.000000 22.206207 2.192500
							CHANNELS 3 Xrotation Yrotation Zrotation
							End Site
							{
								OFFSET 0.000000 22.314178 0.000000
							}
						}
					}
				}
				JOINT LeftShoulder
				{
					OFFSET 12.896400 26.716293 -4.548400
					CHANNELS 3 Xrotation Yrotation Zrotation
					JOINT LeftArm
					{
						OFFSET 19.027000 -4.857010 -1.718400
						CHANNELS 3 Xrotation Yrotation Zrotation
						JOINT LeftForeArm
						{
							OFFSET 24.179897 0.000000 0.000000
							CHANNELS 3 Xrotation Yrotation Zrotation
							JOINT LeftHand
							{
								OFFSET 27.156403 0.000000 0.000000
								CHANNELS 3 Xrotation Yrotation Zrotation
								JOINT LeftHandIndex1
								{
									OFFSET 16.441200 0.000000 0.000000
									CHANNELS 3 Xrotation Yrotation Zrotation
									JOINT LeftHandIndex2
									{
										OFFSET 4.821899 0.000000 0.000000
										CHANNELS 3 Xrotation Yrotation Zrotation
										JOINT LeftHandIndex3
										{
											OFFSET 6.386497 0.000000 0.000000
											CHANNELS 3 Xrotation Yrotation Zrotation
											JOINT LeftHandIndex4
											{
												OFFSET 5.188988 0.000000 0.000000
												CHANNELS 3 Xrotation Yrotation Zrotation
												End Site
												{
													OFFSET -0.178703 5.185913 0.000177
												}
											}
										}
									}
								}
								JOINT LeftHandThumb1
								{
									OFFSET 6.534897 -5.032593 5.900300
									CHANNELS 3 Xrotation Yrotation Zrotation
									JOINT LeftHandThumb2
									{
										OFFSET 3.818176 -2.204422 2.204423
										CHANNELS 3 Xrotation Yrotation Zrotation
										JOINT LeftHandThumb3
										{
											OFFSET 3.252098 -1.877594 1.877601
											CHANNELS 3 Xrotation Yrotation Zrotation
											JOINT LeftHandThumb4
											{
												OFFSET 5.251778 -3.032120 3.032117
												CHANNELS 3 Xrotation Yrotation Zrotation
												End Site
												{
													OFFSET 0.000023 6.780014 0.000000
												}
											}
										}
									}
								}
							}
						}
					}
				}
				JOINT RightShoulder
				{
					OFFSET -12.896300 26.716293 -4.548400
					CHANNELS 3 Xrotation Yrotation Zrotation
					JOINT RightArm
					{
						OFFSET -19.027000 -4.857010 -1.718400
						CHANNELS 3 Xrotation Yrotation Zrotation
						JOINT RightForeArm
						{
							OFFSET -24.179897 0.000000 0.000000
							CHANNELS 3 Xrotation Yrotation Zrotation
							JOINT RightHand
							{
								OFFSET -27.156403 0.000000 0.000000
								CHANNELS 3 Xrotation Yrotation Zrotation
								JOINT RightHandThumb1
								{
									OFFSET -6.591202 -4.852203 5.988100
									CHANNELS 3 Xrotation Yrotation Zrotation
									JOINT RightHandThumb2
									{
										OFFSET -3.818176 -2.204422 2.204423
										CHANNELS 3 Xrotation Yrotation Zrotation
										JOINT RightHandThumb3
										{
											OFFSET -3.252098 -1.877594 1.877601
											CHANNELS 3 Xrotation Yrotation Zrotation
											JOINT RightHandThumb4
											{
												OFFSET -5.251778 -3.032120 3.032117
												CHANNELS 3 Xrotation Yrotation Zrotation
												End Site
												{
													OFFSET -0.000023 6.780014 0.000000
												}
											}
										}
									}
								}
								JOINT RightHandIndex1
								{
									OFFSET -16.029404 0.000000 0.000000
									CHANNELS 3 Xrotation Yrotation Zrotation
									JOINT RightHandIndex2
									{
										OFFSET -5.213303 0.000000 0.000000
										CHANNELS 3 Xrotation Yrotation Zrotation
										JOINT RightHandIndex3
										{
											OFFSET -6.386528 0.000000 0.000000
											CHANNELS 3 Xrotation Yrotation Zrotation
											JOINT RightHandIndex4
											{
												OFFSET -5.189026 0.000000 0.000000
												CHANNELS 3 Xrotation Yrotation Zrotation
												End Site
												{
													OFFSET 0.236702 5.183624 0.001972
												}
											}
										}
									}
								}
							}
						}
					}
				}
			}
		}
	}
	JOINT LeftUpLeg
	{
		OFFSET 14.073000 -7.904099 -1.463000
		CHANNELS 3 Xrotation Yrotation Zrotation
		JOINT LeftLeg
		{
			OFFSET -0.109806 -34.073280 4.093200
			CHANNELS 3 Xrotation Yrotation Zrotation
			JOINT LeftFoot
			{
				OFFSET 0.109806 -29.899420 -6.319000
				CHANNELS 3 Xrotation Yrotation Zrotation
				JOINT LeftToeBase
				{
					OFFSET 1.551100 -14.988700 20.535801
					CHANNELS 3 Xrotation Yrotation Zrotation
					JOINT LeftToe_End
					{
						OFFSET 0.221200 0.570800 13.248301
						CHANNELS 3 Xrotation Yrotation Zrotation
						End Site
						{
							OFFSET 0.000000 13.262435 0.000000
						}
					}
				}
			}
		}
	}
	JOINT RightUpLeg
	{
		OFFSET -13.839300 -7.904099 -1.463000
		CHANNELS 3 Xrotation Yrotation Zrotation
		JOINT RightLeg
		{
			OFFSET 0.109694 -34.073219 4.093300
			CHANNELS 3 Xrotation Yrotation Zrotation
			JOINT RightFoot
			{
				OFFSET -0.109694 -29.899384 -6.319200
				CHANNELS 3 Xrotation Yrotation Zrotation
				JOINT RightToeBase
				{
					OFFSET -1.551100 -14.988700 20.535801
					CHANNELS 3 Xrotation Yrotation Zrotation
					JOINT RightToe_End
					{
						OFFSET -0.221200 0.570900 13.248299
						CHANNELS 3 Xrotation Yrotation Zrotation
						End Site
						{
							OFFSET 0.000000 13.262440 0.000000
						}
					}
				}
			}
		}
	}
}
MOTION
Frames: 7
Frame Time: 0.033333
0.992798 78.255241 0.998153 -0.730954 25.635172 -13.113780 3.576339 0.097996 -1.446782 7.154055 0.096265 -2.974440 7.154058 0.096269 -2.974447 -3.754655 33.275609 1.901224 -8.370981 39.143688 -13.339527 -0.000000 -0.000000 -0.000000 4.249510 -11.868553 -4.612361 3.206730 -13.658990 -39.486037 44.442286 -32.012660 -9.072322 8.563432 2.356038 -1.712030 21.631375 -9.709010 -1.880277 -0.376655 -0.344000 -26.616899 0.000006 0.000009 -0.000004 0.000000 0.000001 0.000001 -0.310798 1.877973 -0.804761 2.334035 6.709300 2.157445 0.000004 -0.000008 0.000002 -0.000003 0.000000 0.000000 3.608280 -3.926222 14.333145 22.740787 -20.338826 60.063195 33.627716 50.001831 -2.084620 18.221533 -18.898488 13.352344 -6.896638 1.280047 -10.377007 -0.642349 -0.093891 -1.289331 -0.000002 -0.000011 -0.000010 0.000002 -0.000002 -0.000000 -1.234560 0.594324 8.695268 0.120546 -1.119650 16.859811 0.000002 -0.000007 -0.000001 -0.000002 -0.000001 -0.000000 -33.837789 8.544363 27.411586 58.705141 7.177556 5.207771 -26.484123 4.012334 -12.557742 -0.945177 -0.371491 0.929014 0.000000 0.000001 -0.000000 -19.446279 -6.457202 -8.511395 17.623018 10.487356 -0.822886 1.533392 -1.014950 19.921836 0.075150 1.225795 0.046530 0.000000 0.000002 0.000000 
0.601488 78.017189 1.013708 -0.750810 25.754915 -12.502693 3.710483 0.222023 -1.538098 7.425709 0.346144 -3.094976 7.425707 0.346130 -3.094965 -3.354945 32.157367 1.529994 -7.877489 39.900439 -12.513720 -0.000001 0.000000 -0.000001 4.173193 -11.817808 -4.595393 3.146411 -13.496682 -39.926953 43.763068 -32.185176 -9.255721 8.122078 2.537727 -2.417181 20.890157 -9.467502 -2.165642 -0.360918 -0.309734 -26.306424 0.000006 0.000009 -0.000001 -0.000001 -0.000000 -0.000003 -0.531910 1.785839 -0.422721 2.749174 6.022947 1.933046 0.000006 -0.000008 0.000001 0.000001 -0.000000 -0.000000 3.431560 -3.212580 13.697669 23.314625 -19.944448 60.818764 33.751714 50.100828 -1.564331 17.258305 -18.237051 13.034329 -6.585567 1.572755 -9.797808 -0.628415 -0.657773 -1.268346 -0.000002 -0.000016 -0.000014 -0.000000 -0.000002 -0.000002 -0.626578 0.983879 9.293004 0.115172 -1.093347 17.128463 0.000003 -0.000005 -0.000003 -0.000004 -0.000002 0.000002 -33.932848 8.362464 26.880983 58.908947 7.354918 5.346321 -26.249624 4.116683 -12.900926 -0.887215 -0.617250 0.851929 0.000000 -0.000001 -0.000000 -20.918388 -6.594924 -9.307948 20.190475 11.127497 -0.461432 0.382186 -1.237281 19.217584 0.230979 1.074258 0.208681 0.000000 -0.000001 -0.000000 
0.114622 77.679985 1.002447 -0.793821 25.783850 -11.841917 3.893072 0.297872 -1.604320 7.792734 0.506017 -3.142925 7.792730 0.506014 -3.142912 -3.184526 31.131804 1.146774 -7.416256 40.872204 -11.779131 -0.000001 0.000001 0.000000 4.159144 -11.442360 -4.500254 3.078355 -13.580676 -40.463168 43.032237 -32.178128 -9.337408 7.449502 2.525779 -3.069931 20.092750 -9.286529 -2.678085 -0.340377 -0.271076 -25.950689 0.000005 0.000007 -0.000005 -0.000001 -0.000000 -0.000002 -0.752895 1.693177 -0.041255 3.130073 5.437070 1.752296 0.000004 -0.000009 0.000002 0.000003 -0.000000 -0.000000 3.217279 -2.295013 12.982506 23.910986 -19.561641 61.609700 33.853901 50.090053 -0.964422 16.389508 -17.563804 12.814020 -6.672746 1.307255 -9.676985 -0.280525 -1.019299 -1.118859 0.000002 -0.000011 -0.000011 -0.000001 0.000002 0.000002 0.022499 1.342457 9.494927 0.109186 -1.066558 17.403747 0.000001 -0.000005 0.000001 0.000002 -0.000000 -0.000001 -34.099641 8.031473 26.348612 59.317393 7.691327 5.508871 -26.019940 4.270527 -13.421449 -0.861105 -0.854506 0.781551 -0.000000 -0.000005 0.000000 -22.678769 -6.598731 -10.109834 23.143874 11.779249 -0.111367 -0.864003 -1.418859 18.420310 0.283844 0.949799 0.263016 0.000000 -0.000001 0.000000 
-0.432543 77.284813 0.950298 -0.678505 25.284016 -11.168728 4.057798 0.409014 -1.651849 8.124912 0.737440 -3.178811 8.124910 0.737453 -3.178813 -3.323821 30.172224 0.776181 -6.869838 42.047795 -11.217447 -0.000002 -0.000000 -0.000001 4.276258 -10.334183 -4.816337 2.766556 -13.975548 -40.583126 42.387932 -32.171157 -9.202713 6.894909 2.712820 -3.533413 19.399848 -8.994192 -2.765889 -0.321311 -0.233502 -25.605932 0.000007 0.000007 -0.000004 -0.000000 0.000002 -0.000001 -0.973852 1.599177 0.339517 3.074569 5.613919 1.778725 0.000001 -0.000009 0.000001 -0.000000 -0.000000 -0.000001 2.996048 -1.173859 12.477885 24.518503 -19.267313 62.186338 34.118485 49.941179 -0.206054 15.727173 -16.880577 12.701652 -6.743977 1.018288 -9.573854 0.016379 -1.263259 -1.020230 -0.000002 -0.000012 -0.000012 0.000001 -0.000001 -0.000001 0.723484 1.671358 9.275106 0.103042 -1.039656 17.679227 0.000002 -0.000006 -0.000001 -0.000002 0.000002 -0.000001 -34.323053 7.688112 25.895037 59.805826 8.416833 5.519122 -25.790371 4.494404 -14.186303 -0.841555 -1.020648 0.731168 -0.000000 -0.000002 0.000000 -24.973040 -6.517198 -10.900885 26.073366 12.817902 0.307506 -1.847413 -1.490666 17.442312 0.216983 0.923499 0.188237 -0.000000 0.000000 0.000000 
-1.030116 76.844040 0.862006 -0.322010 24.192781 -10.408601 4.160761 0.633110 -1.721876 8.336885 1.194641 -3.286724 8.336881 1.194643 -3.286716 -3.553330 29.149919 0.372706 -6.331132 43.085636 -10.784634 -0.000000 -0.000000 0.000000 4.467325 -8.868634 -5.902587 2.281829 -14.481466 -39.759819 41.813127 -32.423997 -9.027387 6.389059 3.459522 -3.758582 18.771161 -8.634022 -2.580625 -0.314560 -0.206554 -25.376448 0.000004 0.000010 0.000001 -0.000001 -0.000000 0.000001 -1.194678 1.504230 0.719683 2.678909 6.226904 1.919822 0.000006 -0.000009 0.000002 0.000002 -0.000000 0.000000 2.813708 -0.068011 12.312263 25.264076 -19.149069 62.559458 34.631450 49.807293 0.656795 15.229742 -16.238013 12.774321 -6.470395 1.027548 -9.133822 0.045927 -1.512770 -1.073579 0.000000 -0.000009 -0.000012 -0.000001 0.000001 -0.000001 1.403310 2.038847 9.219523 0.097673 -1.013641 17.944555 -0.000003 -0.000004 0.000001 -0.000001 0.000001 -0.000002 -34.620972 7.466975 25.499055 60.311725 9.473669 5.275819 -25.547105 4.761644 -15.112618 -0.822129 -1.068433 0.695166 -0.000000 -0.000000 0.000000 -27.940335 -6.405771 -11.814237 28.938781 14.423510 0.896358 -2.497361 -1.453885 16.174479 -0.012263 0.960677 -0.064756 -0.000000 0.000002 -0.000000 
-1.704276 76.344925 0.747796 0.123099 22.896604 -9.431556 4.225707 0.944321 -1.819884 8.476295 1.824328 -3.475089 8.476294 1.824332 -3.475090 -3.542407 27.950051 -0.137546 -6.028060 43.606844 -10.337470 -0.000000 -0.000001 -0.000000 4.586521 -7.939717 -7.526520 1.965848 -14.673452 -38.033304 41.156032 -33.064768 -9.061925 5.563427 4.780432 -3.859075 17.943860 -8.593000 -3.160983 -0.313178 -0.184163 -25.196940 0.000008 0.000008 -0.000005 -0.000001 0.000001 0.000003 -1.415416 1.408265 1.099188 2.322563 6.568527 2.006615 0.000006 -0.000008 0.000002 -0.000001 0.000000 0.000001 2.697660 0.766989 12.262058 26.270463 -19.172983 63.020707 35.224997 49.970190 1.465564 14.586093 -15.664965 12.982483 -6.118962 0.800915 -8.701245 -0.001984 -1.538287 -1.232315 -0.000001 -0.000013 -0.000011 -0.000000 0.000000 -0.000000 2.134753 2.419850 8.799585 0.098123 -0.993152 18.140322 0.000001 -0.000007 0.000003 -0.000000 -0.000002 -0.000001 -34.954487 7.363136 25.039960 60.841652 10.599485 4.874999 -25.248737 5.026248 -16.070904 -0.794250 -0.987139 0.658927 0.000000 -0.000004 -0.000000 -31.331734 -6.255006 -12.927647 31.933142 16.372431 1.591617 -2.999947 -1.378713 14.655072 -0.451821 1.029217 -0.469484 0.000000 0.000001 0.000000 
-2.495550 75.818794 0.602563 0.383654 21.734809 -8.202991 4.318399 1.198696 -1.894475 8.670392 2.338966 -3.628625 8.670394 2.338964 -3.628624 -3.203675 26.596871 -0.771892 -5.985251 43.582655 -9.822849 -0.000001 0.000001 -0.000000 4.543973 -7.895253 -9.035763 2.073918 -14.140321 -36.144524 40.378910 -34.372732 -9.159513 4.377972 5.807301 -4.047798 16.954872 -8.730533 -4.412692 -0.318733 -0.168293 -25.085267 0.000008 0.000010 -0.000010 -0.000001 -0.000001 0.000002 -1.636121 1.311694 1.478147 2.611680 5.909895 1.821971 0.000009 -0.000008 0.000001 0.000004 -0.000000 0.000000 2.626403 1.325636 11.901346 27.329721 -19.103887 63.679575 35.635788 50.551845 2.100729 13.449920 -15.073843 12.890063 -5.610059 0.481294 -8.224559 -0.085437 -1.332296 -1.511048 -0.000002 -0.000015 -0.000012 0.000001 -0.000001 -0.000001 2.972250 2.759733 7.706487 0.115668 -0.988952 18.131811 0.000000 -0.000006 0.000005 -0.000001 0.000001 -0.000001 -35.142604 7.281632 24.462852 61.308420 11.657019 4.512052 -24.791775 5.271329 -17.058044 -0.750749 -0.813668 0.604146 -0.000000 0.000002 -0.000000 -34.633734 -6.013447 -14.083521 35.016058 18.281223 2.219411 -3.434994 -1.300093 13.029670 -1.172190 1.173491 -0.659777 -0.000000 -0.000001 0.000000 
